<svg aria-hidden="true" style="position: absolute; width: 0; height: 0; overflow: hidden;" version="1.1" xmlns="http://www.w3.org/2000/svg" xmlns:xlink="http://www.w3.org/1999/xlink">
<defs>
<symbol id="icon-back_to_top_0p5ut2fqlm8x" viewBox="0 0 32 32">
<path d="M30 16c0 7.727-6.273 14-14 14s-14-6.273-14-14c0-7.727 6.273-14 14-14s14 6.273 14 14zM10.082 19.716c4.228-4.228 3.659-3.659 5.579-5.579 0.094-0.094 0.221-0.146 0.353-0.146s0.26 0.052 0.354 0.146c1.868 1.868 5.55 5.551 5.55 5.551 0.391 0.39 1.024 0.39 1.415 0s0.39-1.024 0-1.415c0 0-3.682-3.682-5.551-5.55-0.469-0.469-1.105-0.732-1.768-0.732s-1.298 0.263-1.767 0.732c-1.92 1.919-1.351 1.351-5.58 5.579-0.39 0.391-0.39 1.024 0 1.414 0.391 0.391 1.024 0.391 1.415 0z"></path>
</symbol>
<symbol id="icon-house_qpi3gebhmxrj" viewBox="0 0 32 32">
<path d="M31.309 14.948v-0.004l-13.64-13.64c-0.923-0.918-2.414-0.918-3.337 0l-13.64 13.64c-0.922 0.92-0.924 2.414-0.004 3.337s2.414 0.924 3.337 0.004l11.975-11.979 11.971 11.979c0.921 0.921 2.415 0.921 3.337 0s0.921-2.415 0-3.337z"></path>
<path d="M15.993 7.829l-11.038 11.046v10.981c0.041 0.878 0.783 1.558 1.661 1.524h4.525c0.21 0 0.381-0.171 0.381-0.381v-7.416c0-2.474 2.006-4.479 4.48-4.479s4.478 2.005 4.479 4.479v7.42c0 0.21 0.171 0.381 0.381 0.381h4.517c0.878 0.034 1.62-0.646 1.661-1.524v-10.985l-11.046-11.046z"></path>
</symbol>
<symbol id="icon-plus_fx7mv1cmdi3i" viewBox="0 0 32 32">
<path d="M28.867 12.288l-9.865-0.001-0.001-9.154c0.001-1.73-1.403-3.133-3.133-3.133s-3.132 1.403-3.132 3.133v9.155l-9.603-0.001c-1.73 0.001-3.133 1.403-3.133 3.133 0.001 1.73 1.403 3.132 3.133 3.132h9.603v10.315c0 1.732 1.403 3.133 3.133 3.133s3.132-1.403 3.133-3.132v-10.316h9.866c1.729 0 3.132-1.402 3.132-3.131 0.002-1.731-1.403-3.134-3.133-3.133z"></path>
</symbol>
<symbol id="icon-cross_mr3w4khsljuu" viewBox="0 0 32 32">
<path d="M18.855 16l12.936-12.936c0.278-0.279 0.278-0.731 0-1.009l-1.845-1.846c-0.134-0.134-0.316-0.209-0.505-0.209s-0.371 0.075-0.505 0.209l-12.936 12.936-12.936-12.936c-0.268-0.268-0.742-0.268-1.010 0l-1.845 1.846c-0.279 0.279-0.279 0.731 0 1.009l12.936 12.936-12.936 12.936c-0.279 0.279-0.279 0.73 0 1.009l1.845 1.846c0.134 0.134 0.316 0.209 0.505 0.209s0.371-0.076 0.505-0.209l12.936-12.936 12.936 12.936c0.134 0.134 0.316 0.209 0.505 0.209s0.371-0.076 0.505-0.209l1.845-1.846c0.278-0.279 0.278-0.73 0-1.009l-12.937-12.936z"></path>
</symbol>
<symbol id="icon-menu-burger_cw4cxe4eu30v" viewBox="0 0 32 32">
<path d="M26.074 7.704h-20.148c-0.981 0-1.778-0.797-1.778-1.778v0c0-0.981 0.797-1.778 1.778-1.778h20.148c0.981 0 1.778 0.797 1.778 1.778v0c0 0.981-0.797 1.778-1.778 1.778z"></path>
<path d="M26.074 17.778h-20.148c-0.981 0-1.778-0.797-1.778-1.778v0c0-0.981 0.797-1.778 1.778-1.778h20.148c0.981 0 1.778 0.797 1.778 1.778v0c0 0.981-0.797 1.778-1.778 1.778z"></path>
<path d="M26.074 27.852h-20.148c-0.981 0-1.778-0.797-1.778-1.778v0c0-0.981 0.797-1.778 1.778-1.778h20.148c0.981 0 1.778 0.797 1.778 1.778v0c0 0.981-0.797 1.778-1.778 1.778z"></path>
</symbol>
<symbol id="icon-facebook_logo_9p7facxlc315" viewBox="0 0 32 32">
<path d="M16 0c-8.837 0-16 7.163-16 16s7.163 16 16 16 16-7.163 16-16-7.163-16-16-16zM22.104 8.148l-2.213 0.001c-1.735 0-2.071 0.825-2.071 2.035v2.668h4.138l-0.002 4.179h-4.136v10.724h-4.316v-10.724h-3.608v-4.179h3.608v-3.082c0-3.576 2.185-5.524 5.375-5.524l3.225 0.005v3.898z"></path>
</symbol>
<symbol id="icon-triangular_black_arrow_pointing_down_7mofji9c3lzd" viewBox="0 0 32 32">
<path d="M0.695 9.738l13.21 16.8c1.157 2.028 3.033 2.028 4.19 0l13.209-16.797c0.258-0.368 0.536-1.024 0.593-1.469 0.182-1.444 0.326-4.33-1.425-4.33h-28.943c-1.751 0-1.607 2.884-1.426 4.328 0.056 0.446 0.335 1.101 0.592 1.469z"></path>
</symbol>
<symbol id="icon-clock" viewBox="0 0 32 32">
<path d="M20.586 23.414l-6.586-6.586v-8.828h4v7.172l5.414 5.414zM16 0c-8.837 0-16 7.163-16 16s7.163 16 16 16 16-7.163 16-16-7.163-16-16-16zM16 28c-6.627 0-12-5.373-12-12s5.373-12 12-12c6.627 0 12 5.373 12 12s-5.373 12-12 12z"></path>
</symbol>
<symbol id="icon-location2" viewBox="0 0 32 32">
<path d="M16 0c-5.523 0-10 4.477-10 10 0 10 10 22 10 22s10-12 10-22c0-5.523-4.477-10-10-10zM16 16.125c-3.383 0-6.125-2.742-6.125-6.125s2.742-6.125 6.125-6.125v0c3.383 0 6.125 2.742 6.125 6.125s-2.742 6.125-6.125 6.125v0zM12.125 10c0-2.14 1.735-3.875 3.875-3.875s3.875 1.735 3.875 3.875v0c0 2.14-1.735 3.875-3.875 3.875s-3.875-1.735-3.875-3.875v0z"></path>
</symbol>
<symbol id="icon-phone-call-1" viewBox="0 0 32 32">
<path d="M30.667 14.667c-0.736 0-1.333-0.597-1.333-1.333v0c-0.006-5.889-4.778-10.661-10.666-10.667h-0.001c-0.736 0-1.333-0.597-1.333-1.333s0.597-1.333 1.333-1.333v0c7.36 0.008 13.325 5.973 13.333 13.333v0.001c0 0.736-0.597 1.333-1.333 1.333v0zM26.667 13.333c0-4.418-3.582-8-8-8v0c-0.736 0-1.333 0.597-1.333 1.333s0.597 1.333 1.333 1.333v0c2.946 0 5.333 2.388 5.333 5.333v0c0 0.736 0.597 1.333 1.333 1.333s1.333-0.597 1.333-1.333v0zM29.577 29.552l1.213-1.399c0.745-0.747 1.206-1.779 1.206-2.918s-0.461-2.171-1.206-2.918l0 0c-0.041-0.041-3.249-2.509-3.249-2.509-0.74-0.705-1.744-1.14-2.85-1.14-1.11 0-2.117 0.437-2.86 1.149l0.001-0.001-2.541 2.141c-4.203-1.771-7.479-5.052-9.201-9.146l-0.042-0.112 2.133-2.533c0.711-0.741 1.149-1.749 1.149-2.86 0-1.106-0.434-2.11-1.141-2.851l0.002 0.002s-2.471-3.204-2.512-3.245c-0.745-0.749-1.776-1.213-2.915-1.213-1.109 0-2.115 0.439-2.854 1.153l0.001-0.001-1.533 1.333c-9.059 10.509 10.448 29.865 21.304 29.517 0.014 0 0.031 0 0.048 0 2.288 0 4.358-0.936 5.846-2.447l0.001-0.001z"></path>
</symbol>
</defs>
</svg>
